<?xml version="1.0" standalone="no"?><!DOCTYPE svg PUBLIC "-//W3C//DTD SVG 1.1//EN" "http://www.w3.org/Graphics/SVG/1.1/DTD/svg11.dtd"><svg t="1751467007897" class="icon" viewBox="0 0 1024 1024" version="1.1" xmlns="http://www.w3.org/2000/svg" p-id="1492" xmlns:xlink="http://www.w3.org/1999/xlink" width="200" height="200"><path d="M947.2 173.248c6.912 0 12.8 5.888 12.8 12.8v615.232c0 6.912-5.888 12.8-12.8 12.8H76.8c-6.912 0-12.8-5.888-12.8-12.8V186.048c0-6.912 5.888-12.8 12.8-12.8h870.4m0-64H76.8c-42.24 0-76.8 34.56-76.8 76.8v615.232c0 42.24 34.56 76.8 76.8 76.8h870.4c42.24 0 76.8-34.56 76.8-76.8V186.048c0-42.24-34.56-76.8-76.8-76.8z" fill="currentColor" p-id="1493"></path><path d="M694.4 760.192H117.824l242.176-257.28c25.344-26.944 66.88-26.944 92.224 0l242.176 257.28z" fill="currentColor" p-id="1494"></path><path d="M906.176 760.192H519.296l87.552-92.992 59.84-63.552c25.28-26.944 66.816-26.944 92.16 0l147.328 156.544z" fill="currentColor" p-id="1495"></path><path d="M649.792 341.952m-62.976 0a62.976 62.976 0 1 0 125.952 0 62.976 62.976 0 1 0-125.952 0Z" fill="currentColor" p-id="1496"></path></svg>