<?xml version="1.0" standalone="no"?><!DOCTYPE svg PUBLIC "-//W3C//DTD SVG 1.1//EN" "http://www.w3.org/Graphics/SVG/1.1/DTD/svg11.dtd"><svg t="1751784386767" class="icon" viewBox="0 0 1025 1024" version="1.1" xmlns="http://www.w3.org/2000/svg" p-id="10239" xmlns:xlink="http://www.w3.org/1999/xlink" width="200.1953125" height="200"><path d="M847.169075 98.161656h-669.738384c-43.982819 0-79.968762 35.985943-79.968762 79.968762v669.838344c0 43.982819 35.985943 79.968762 79.968762 79.968762h669.738384c43.982819 0 79.968762-35.985943 79.968762-79.968762V178.130418c0-43.982819-35.985943-79.968762-79.968762-79.968762zM302.281921 235.0082c52.979305 0 95.962515 42.98321 95.962515 95.962515s-42.98321 95.962515-95.962515 95.962514-95.962515-42.98321-95.962515-95.962514 42.98321-95.962515 95.962515-95.962515zM830.675517 775.197189H237.207341c-10.695822 0-15.993752-12.894963-8.39672-20.392035l153.040219-152.940257c4.798126-4.798126 12.695041-4.598204 17.293244 0.399843l102.360016 112.456072c5.098009 5.597813 14.094494 5.098009 18.492776-1.09957l163.236236-226.211636c5.19797-7.197189 16.293635-6.397501 20.292073 1.499414l137.846154 268.795002c3.998438 7.996876-1.699336 17.493167-10.695822 17.493167z" fill="currentColor" p-id="10240"></path></svg>