<?xml version="1.0" standalone="no"?><!DOCTYPE svg PUBLIC "-//W3C//DTD SVG 1.1//EN" "http://www.w3.org/Graphics/SVG/1.1/DTD/svg11.dtd"><svg t="1751462384046" class="icon" viewBox="0 0 1024 1024" version="1.1" xmlns="http://www.w3.org/2000/svg" p-id="1649" xmlns:xlink="http://www.w3.org/1999/xlink" width="200" height="200"><path d="M307.904 95.296C229.888 173.312 201.984 282.432 224.064 382.72a309.376 309.376 0 0 0 83.84 152.768l220.096 220.096 220.096-220.096c43.52-43.52 71.488-96.768 83.84-152.768 22.144-100.288-5.824-209.408-83.84-287.424C626.56-26.24 429.44-26.24 307.904 95.296z m408.576 171.968c16.384 64.32-0.576 135.36-50.944 185.664-75.968 75.968-199.168 75.968-275.136 0-50.304-50.304-67.328-121.344-50.944-185.664 8.32-32.768 25.28-63.808 50.944-89.472s56.64-42.624 89.472-50.944a194.5152 194.5152 0 0 1 96.256 0A193.536 193.536 0 0 1 665.6 177.792c25.6 25.664 42.56 56.704 50.88 89.472z"  fill="currentColor" p-id="1650"></path><path d="M528 315.392m-116.736 0a116.736 116.736 0 1 0 233.472 0 116.736 116.736 0 1 0-233.472 0Z" fill="currentColor" p-id="1651"></path><path d="M612.8 1019.264c-6.08 0-12.224-1.728-17.536-5.248l-260.352-170.368-209.536 125.696c-9.856 5.952-22.208 6.08-32.256 0.384a32.0064 32.0064 0 0 1-16.256-27.84V478.336c0-17.664 14.336-32 32-32s32 14.336 32 32v407.04l178.304-106.944a31.936 31.936 0 0 1 33.984 0.64l260.096 170.24 269.76-166.4v-304.64c0-17.664 14.336-32 32-32s32 14.336 32 32v322.496c0 11.072-5.76 21.376-15.232 27.264l-302.272 186.432c-5.056 3.2-10.88 4.8-16.704 4.8z"  fill="currentColor" p-id="1652"></path></svg>