<?xml version="1.0" standalone="no"?><!DOCTYPE svg PUBLIC "-//W3C//DTD SVG 1.1//EN" "http://www.w3.org/Graphics/SVG/1.1/DTD/svg11.dtd"><svg t="1772615576647" class="icon" viewBox="0 0 1024 1024" version="1.1" xmlns="http://www.w3.org/2000/svg" p-id="5749" xmlns:xlink="http://www.w3.org/1999/xlink" width="200" height="200"><path d="M297.609924 800.027997L62.75928 664.364954v223.972004l234.850644 135.663042 197.735283-113.905762-90.228722-52.473441v-119.665041l-107.506561 62.072241z" fill="currentColor" p-id="5750"></path><path d="M726.35633 400.909886l-195.815523 112.625922-87.669041-48.633921 89.588801-51.833521v-119.665041l-234.850643-135.663043L62.75928 293.403325v271.326084l45.434321 26.23672 189.416323 109.426322 107.506561-62.072241v-95.988002l86.389202 47.994001v217.572804l234.850643 135.663042 234.850644-135.663042v-271.326085l-188.136483-108.146481-46.714161-27.516561z" fill="currentColor" p-id="5751"></path><path d="M726.228346 301.402325l84.469442 48.63392V135.663042L575.847144 0l-189.416323 109.426322 232.290964 133.743282v120.304962l107.506561-62.072241z" fill="currentColor" p-id="5752"></path></svg>