<?xml version="1.0" standalone="no"?><!DOCTYPE svg PUBLIC "-//W3C//DTD SVG 1.1//EN" "http://www.w3.org/Graphics/SVG/1.1/DTD/svg11.dtd"><svg t="1773299391151" class="icon" viewBox="0 0 1024 1024" version="1.1" xmlns="http://www.w3.org/2000/svg" p-id="13767" xmlns:xlink="http://www.w3.org/1999/xlink" width="200" height="200"><path d="M234.666667 448a64 64 0 1 0 0 128 64 64 0 0 0 0-128z m-149.333334 64a149.333333 149.333333 0 1 1 298.666667 0 149.333333 149.333333 0 0 1-298.666667 0z" fill="currentColor" p-id="13768"></path><path d="M277.333333 368.853333V128H192v240.853333a149.397333 149.397333 0 0 0 0 286.293334V896h85.333333V655.146667a149.397333 149.397333 0 0 0 0-286.293334zM170.666667 512a64 64 0 1 1 128 0 64 64 0 0 1-128 0zM512 128a42.666667 42.666667 0 0 0-42.666667 42.666667v256a42.666667 42.666667 0 0 0 42.666667 42.666666h384a42.666667 42.666667 0 0 0 42.666667-42.666666V170.666667a42.666667 42.666667 0 0 0-42.666667-42.666667H512z m42.666667 256v-170.666667h298.666666v170.666667H554.666667z m-85.333334 213.333333h469.333334v85.333334H469.333333v-85.333334z m469.333334 213.333334H469.333333v85.333333h469.333334v-85.333333z" fill="currentColor" p-id="13769"></path></svg>