<?xml version="1.0" standalone="no"?><!DOCTYPE svg PUBLIC "-//W3C//DTD SVG 1.1//EN" "http://www.w3.org/Graphics/SVG/1.1/DTD/svg11.dtd"><svg t="1751634196807" class="icon" viewBox="0 0 1024 1024" version="1.1" xmlns="http://www.w3.org/2000/svg" p-id="8744" xmlns:xlink="http://www.w3.org/1999/xlink" width="200" height="200"><path d="M154.907697 416.658186a210.809588 207.321595 0 1 0 421.618177 0 210.809588 207.321595 0 1 0-421.618177 0zM518.511987 722.279589h-275.799461C86.013832 722.279589 0.928998 814.918408 0.928998 951.936141v15.999968c0 55.965891 127.035752 56.061891 283.766446 56.061891h183.065642c156.666694 0 283.735446-2.047996 283.735446-56.061891v-15.999968c-0.032-137.019732-76.317851-229.656551-232.984545-229.656552z" fill="currentColor" p-id="8745"></path><path d="M533.999957 147.706712a206.617596 206.617596 0 0 0-101.405802 33.759934c118.428769 23.549954 194.39362 116.379773 192.921623 228.567553-0.703999 54.845893-17.502966 96.380812-46.557909 138.619729 102.844799-16.479968 178.457651-107.228791 172.186664-211.705586-6.783987-111.323783-103.996797-196.024617-217.145576-189.24163zM667.849696 627.146775h-86.076832c-63.773875 0-124.859756 23.615954-171.034666 55.998891h158.874689c164.250679 0 214.009582 116.059773 232.216547 255.415501 62.109879-5.887989 115.547774-23.743954 115.547774-67.261869l-7.166986-43.549915c-22.143957-95.773813-93.501817-200.602608-242.359526-200.602608zM1023.967 157.339693a29.886942 29.886942 0 0 1-30.014941 29.949941h-97.27681v97.27681a29.950942 29.950942 0 0 1-29.919942 29.982942 29.982941 29.982941 0 0 1-30.045941-30.014942V187.289634h-97.27681a29.982941 29.982941 0 1 1 0.032-60.029883h97.24481V30.046941a29.982941 29.982941 0 1 1 59.997883-0.032v97.24481l97.27681 0.032a30.014941 30.014941 0 0 1 29.982941 30.046942z" fill="currentColor" p-id="8746"></path></svg>