<?xml version="1.0" standalone="no"?><!DOCTYPE svg PUBLIC "-//W3C//DTD SVG 1.1//EN" "http://www.w3.org/Graphics/SVG/1.1/DTD/svg11.dtd"><svg t="1751780772635" class="icon" viewBox="0 0 1024 1024" version="1.1" xmlns="http://www.w3.org/2000/svg" p-id="2513" xmlns:xlink="http://www.w3.org/1999/xlink" width="200" height="200"><path d="M965.958726 1023.982522H679.993915a55.845841 55.845841 0 0 1-57.210014-54.353777v-291.592025a55.845841 55.845841 0 0 1 57.210014-54.353777h285.964811A55.845841 55.845841 0 0 1 1023.16874 677.994089v291.592025A55.845841 55.845841 0 0 1 965.958726 1023.982522z m-59.384166-333.241939h-191.069511a22.167815 22.167815 0 1 0 0 44.335629h191.069511a22.167815 22.167815 0 1 0 0-44.335629z m-213.152065 133.092149a22.764641 22.764641 0 0 0 22.764641 22.764641h143.323448a22.764641 22.764641 0 0 0 0-45.486651H716.229766a22.764641 22.764641 0 0 0-22.892532 22.508858z m237.152988 88.71389h-215.070434a22.167815 22.167815 0 1 0 0 44.335629h214.985173a22.167815 22.167815 0 0 0 0-44.37826z m-381.371675-396.462842a387.382563 387.382563 0 0 1 98.817297 63.050381h-47.44765a22.253076 22.253076 0 0 0-22.253075 22.253076V977.089067l-539.615769 0.767348A36.662155 36.662155 0 0 1 1.44563 938.721695 374.849222 374.849222 0 0 1 0.038827 909.093558a423.234741 423.234741 0 0 1 252.201523-392.881886 285.964811 285.964811 0 0 1-118.512548-234.467272A274.625121 274.625121 0 0 1 400.764709 0.213152 274.667751 274.667751 0 0 1 667.673725 282.213334a285.92218 285.92218 0 0 1-118.555178 233.998338z" fill="currentColor" p-id="2514"></path></svg>