<?xml version="1.0" standalone="no"?>
<!DOCTYPE svg PUBLIC "-//W3C//DTD SVG 1.1//EN" "http://www.w3.org/Graphics/SVG/1.1/DTD/svg11.dtd">
<svg t="1774233021673" class="icon" viewBox="0 0 1024 1024" version="1.1"
  xmlns="http://www.w3.org/2000/svg" p-id="10823" xmlns:xlink="http://www.w3.org/1999/xlink"
  width="200" height="200">
  <path
    d="M843.776 761.856H180.224c-16.384 0-30.72-12.288-30.72-30.72v-12.288c0-16.384 12.288-30.72 30.72-30.72h129.024c20.48 0 38.912-16.384 38.912-38.912s-16.384-34.816-36.864-34.816H180.224c-59.392 0-106.496 47.104-106.496 106.496v12.288c0 59.392 47.104 106.496 106.496 106.496h661.504c16.384 0 30.72 12.288 30.72 30.72v10.24c0 16.384-12.288 30.72-30.72 30.72H294.912c-20.48 0-38.912 16.384-38.912 38.912 0 20.48 16.384 38.912 38.912 38.912h546.816c59.392 0 106.496-47.104 106.496-106.496v-12.288c2.048-61.44-47.104-108.544-104.448-108.544z"
    p-id="10824" fill="currentColor"></path>
  <path
    d="M512 36.864c-137.216 0-247.808 110.592-247.808 247.808S432.128 663.552 512 663.552c102.4 0 247.808-241.664 247.808-378.88S647.168 36.864 512 36.864zM512 409.6c-69.632 0-126.976-57.344-126.976-126.976s57.344-126.976 126.976-126.976 126.976 57.344 126.976 126.976S581.632 409.6 512 409.6z"
    p-id="10825" fill="currentColor"></path>
</svg>