<?xml version="1.0" standalone="no"?><!DOCTYPE svg PUBLIC "-//W3C//DTD SVG 1.1//EN" "http://www.w3.org/Graphics/SVG/1.1/DTD/svg11.dtd"><svg t="1752248078132" class="icon" viewBox="0 0 1024 1024" version="1.1" xmlns="http://www.w3.org/2000/svg" p-id="4554" xmlns:xlink="http://www.w3.org/1999/xlink" width="200" height="200"><path d="M768 438.4c60.8-1.6 108.8-51.2 107.2-112-1.6-57.6-48-105.6-107.2-107.2-60.8 1.6-108.8 51.2-107.2 112 1.6 59.2 49.6 105.6 107.2 107.2zM960 73.6H64c-35.2 0-64 28.8-64 64v748.8c0 35.2 28.8 64 64 64h896c35.2 0 64-28.8 64-64V137.6c0-35.2-28.8-64-64-64zM724.8 524.8c-8-8-17.6-14.4-28.8-14.4s-19.2 4.8-28.8 12.8L622.4 560c-9.6 6.4-16 11.2-25.6 11.2-9.6 0-19.2-3.2-25.6-9.6l-9.6-9.6-123.2-132.8c-9.6-11.2-22.4-17.6-38.4-17.6s-28.8 8-38.4 17.6L73.6 768V172.8c1.6-16 14.4-27.2 30.4-27.2h817.6c16 0 28.8 11.2 28.8 27.2V768L724.8 524.8z" p-id="4555"></path></svg>